<svg width="1920" height="1080" viewBox="0 0 1920 1080" fill="none" xmlns="http://www.w3.org/2000/svg">
<mask id="path-1-outside-1_12_79" maskUnits="userSpaceOnUse" x="691" y="455" width="867" height="152" fill="black">
<rect fill="white" x="691" y="455" width="867" height="152"/>
<path d="M692.733 531.059C692.733 516.847 696.007 504.098 702.556 492.812C709.244 481.526 718.231 472.748 729.517 466.478C740.942 460.069 753.413 456.864 766.928 456.864C782.394 456.864 796.118 460.696 808.101 468.359C820.223 475.883 829.001 486.612 834.435 500.545H805.802C802.04 492.882 796.815 487.169 790.127 483.407C783.439 479.645 775.706 477.764 766.928 477.764C757.314 477.764 748.745 479.924 741.221 484.243C733.697 488.562 727.775 494.763 723.456 502.844C719.276 510.925 717.186 520.33 717.186 531.059C717.186 541.788 719.276 551.193 723.456 559.274C727.775 567.355 733.697 573.625 741.221 578.084C748.745 582.403 757.314 584.563 766.928 584.563C775.706 584.563 783.439 582.682 790.127 578.92C796.815 575.158 802.04 569.445 805.802 561.782H834.435C829.001 575.715 820.223 586.444 808.101 593.968C796.118 601.492 782.394 605.254 766.928 605.254C753.273 605.254 740.803 602.119 729.517 595.849C718.231 589.44 709.244 580.592 702.556 569.306C696.007 558.02 692.733 545.271 692.733 531.059ZM949.894 574.322H889.075L878.625 604H853.754L905.795 458.536H933.383L985.424 604H960.344L949.894 574.322ZM943.206 554.885L919.589 487.378L895.763 554.885H943.206ZM1115.69 458.745L1067.62 551.332V604H1043.79V551.332L995.512 458.745H1022.05L1055.7 530.014L1089.35 458.745H1115.69ZM1259.79 458.745L1205.24 604H1177.65L1122.89 458.745H1148.39L1191.44 579.547L1234.71 458.745H1259.79ZM1345.96 605.463C1332.45 605.463 1319.98 602.328 1308.55 596.058C1297.27 589.649 1288.28 580.801 1281.59 569.515C1275.04 558.09 1271.77 545.271 1271.77 531.059C1271.77 516.847 1275.04 504.098 1281.59 492.812C1288.28 481.526 1297.27 472.748 1308.55 466.478C1319.98 460.069 1332.45 456.864 1345.96 456.864C1359.62 456.864 1372.09 460.069 1383.38 466.478C1394.8 472.748 1403.79 481.526 1410.34 492.812C1416.88 504.098 1420.16 516.847 1420.16 531.059C1420.16 545.271 1416.88 558.09 1410.34 569.515C1403.79 580.801 1394.8 589.649 1383.38 596.058C1372.09 602.328 1359.62 605.463 1345.96 605.463ZM1345.96 584.772C1355.58 584.772 1364.15 582.612 1371.67 578.293C1379.2 573.834 1385.05 567.564 1389.23 559.483C1393.55 551.262 1395.71 541.788 1395.71 531.059C1395.71 520.33 1393.55 510.925 1389.23 502.844C1385.05 494.763 1379.2 488.562 1371.67 484.243C1364.15 479.924 1355.58 477.764 1345.96 477.764C1336.35 477.764 1327.78 479.924 1320.26 484.243C1312.73 488.562 1306.81 494.763 1302.49 502.844C1298.31 510.925 1296.22 520.33 1296.22 531.059C1296.22 541.788 1298.31 551.262 1302.49 559.483C1306.81 567.564 1312.73 573.834 1320.26 578.293C1327.78 582.612 1336.35 584.772 1345.96 584.772ZM1510.28 531.477L1555.42 604H1528.67L1495.85 551.332L1465.13 604H1438.59L1483.73 531.477L1438.38 458.745H1465.13L1498.15 511.831L1529.09 458.745H1555.63L1510.28 531.477Z"/>
</mask>
<path d="M692.733 531.059C692.733 516.847 696.007 504.098 702.556 492.812C709.244 481.526 718.231 472.748 729.517 466.478C740.942 460.069 753.413 456.864 766.928 456.864C782.394 456.864 796.118 460.696 808.101 468.359C820.223 475.883 829.001 486.612 834.435 500.545H805.802C802.04 492.882 796.815 487.169 790.127 483.407C783.439 479.645 775.706 477.764 766.928 477.764C757.314 477.764 748.745 479.924 741.221 484.243C733.697 488.562 727.775 494.763 723.456 502.844C719.276 510.925 717.186 520.33 717.186 531.059C717.186 541.788 719.276 551.193 723.456 559.274C727.775 567.355 733.697 573.625 741.221 578.084C748.745 582.403 757.314 584.563 766.928 584.563C775.706 584.563 783.439 582.682 790.127 578.92C796.815 575.158 802.04 569.445 805.802 561.782H834.435C829.001 575.715 820.223 586.444 808.101 593.968C796.118 601.492 782.394 605.254 766.928 605.254C753.273 605.254 740.803 602.119 729.517 595.849C718.231 589.44 709.244 580.592 702.556 569.306C696.007 558.02 692.733 545.271 692.733 531.059ZM949.894 574.322H889.075L878.625 604H853.754L905.795 458.536H933.383L985.424 604H960.344L949.894 574.322ZM943.206 554.885L919.589 487.378L895.763 554.885H943.206ZM1115.69 458.745L1067.62 551.332V604H1043.79V551.332L995.512 458.745H1022.05L1055.7 530.014L1089.35 458.745H1115.69ZM1259.79 458.745L1205.24 604H1177.65L1122.89 458.745H1148.39L1191.44 579.547L1234.71 458.745H1259.79ZM1345.96 605.463C1332.45 605.463 1319.98 602.328 1308.55 596.058C1297.27 589.649 1288.28 580.801 1281.59 569.515C1275.04 558.09 1271.77 545.271 1271.77 531.059C1271.77 516.847 1275.04 504.098 1281.59 492.812C1288.28 481.526 1297.27 472.748 1308.55 466.478C1319.98 460.069 1332.45 456.864 1345.96 456.864C1359.62 456.864 1372.09 460.069 1383.38 466.478C1394.8 472.748 1403.79 481.526 1410.34 492.812C1416.88 504.098 1420.16 516.847 1420.16 531.059C1420.16 545.271 1416.88 558.09 1410.34 569.515C1403.79 580.801 1394.8 589.649 1383.38 596.058C1372.09 602.328 1359.62 605.463 1345.96 605.463ZM1345.96 584.772C1355.58 584.772 1364.15 582.612 1371.67 578.293C1379.2 573.834 1385.05 567.564 1389.23 559.483C1393.55 551.262 1395.71 541.788 1395.71 531.059C1395.71 520.33 1393.55 510.925 1389.23 502.844C1385.05 494.763 1379.2 488.562 1371.67 484.243C1364.15 479.924 1355.58 477.764 1345.96 477.764C1336.35 477.764 1327.78 479.924 1320.26 484.243C1312.73 488.562 1306.81 494.763 1302.49 502.844C1298.31 510.925 1296.22 520.33 1296.22 531.059C1296.22 541.788 1298.31 551.262 1302.49 559.483C1306.81 567.564 1312.73 573.834 1320.26 578.293C1327.78 582.612 1336.35 584.772 1345.96 584.772ZM1510.28 531.477L1555.42 604H1528.67L1495.85 551.332L1465.13 604H1438.59L1483.73 531.477L1438.38 458.745H1465.13L1498.15 511.831L1529.09 458.745H1555.63L1510.28 531.477Z" fill="url(#paint0_linear_12_79)"/>
<path d="M702.556 492.812L701.696 492.302L701.691 492.31L702.556 492.812ZM729.517 466.478L730.003 467.352L730.006 467.35L729.517 466.478ZM808.101 468.359L807.562 469.202L807.574 469.209L808.101 468.359ZM834.435 500.545V501.545H835.898L835.367 500.182L834.435 500.545ZM805.802 500.545L804.904 500.986L805.179 501.545H805.802V500.545ZM790.127 483.407L790.617 482.535V482.535L790.127 483.407ZM741.221 484.243L741.719 485.11V485.11L741.221 484.243ZM723.456 502.844L722.574 502.373L722.568 502.385L723.456 502.844ZM723.456 559.274L722.568 559.733L722.574 559.745L723.456 559.274ZM741.221 578.084L740.711 578.944L740.723 578.951L741.221 578.084ZM790.127 578.92L790.617 579.792V579.792L790.127 578.92ZM805.802 561.782V560.782H805.179L804.904 561.341L805.802 561.782ZM834.435 561.782L835.367 562.145L835.898 560.782H834.435V561.782ZM808.101 593.968L807.574 593.118L807.569 593.121L808.101 593.968ZM729.517 595.849L729.023 596.719L729.031 596.723L729.517 595.849ZM702.556 569.306L701.691 569.808L701.696 569.816L702.556 569.306ZM692.733 531.059H693.733C693.733 517.007 696.969 504.434 703.421 493.314L702.556 492.812L701.691 492.31C695.046 503.762 691.733 516.687 691.733 531.059H692.733ZM702.556 492.812L703.416 493.322C710.015 482.186 718.874 473.535 730.003 467.352L729.517 466.478L729.031 465.604C717.588 471.961 708.473 480.866 701.696 492.302L702.556 492.812ZM729.517 466.478L730.006 467.35C741.277 461.027 753.578 457.864 766.928 457.864V456.864V455.864C753.247 455.864 740.607 459.11 729.028 465.606L729.517 466.478ZM766.928 456.864V457.864C782.22 457.864 795.754 461.65 807.562 469.201L808.101 468.359L808.64 467.517C796.482 459.741 782.568 455.864 766.928 455.864V456.864ZM808.101 468.359L807.574 469.209C819.503 476.613 828.144 487.166 833.503 500.908L834.435 500.545L835.367 500.182C829.858 486.057 820.943 475.153 808.628 467.509L808.101 468.359ZM834.435 500.545V499.545H805.802V500.545V501.545H834.435V500.545ZM805.802 500.545L806.7 500.104C802.859 492.281 797.501 486.408 790.617 482.535L790.127 483.407L789.637 484.279C796.129 487.93 801.221 493.483 804.904 500.986L805.802 500.545ZM790.127 483.407L790.617 482.535C783.759 478.678 775.853 476.764 766.928 476.764V477.764V478.764C775.559 478.764 783.119 480.612 789.637 484.279L790.127 483.407ZM766.928 477.764V476.764C757.159 476.764 748.415 478.96 740.723 483.376L741.221 484.243L741.719 485.11C749.075 480.887 757.469 478.764 766.928 478.764V477.764ZM741.221 484.243L740.723 483.376C733.027 487.794 726.977 494.136 722.574 502.373L723.456 502.844L724.338 503.315C728.574 495.39 734.367 489.331 741.719 485.11L741.221 484.243ZM723.456 502.844L722.568 502.385C718.302 510.631 716.186 520.199 716.186 531.059H717.186H718.186C718.186 520.462 720.25 511.219 724.344 503.303L723.456 502.844ZM717.186 531.059H716.186C716.186 541.919 718.302 551.487 722.568 559.733L723.456 559.274L724.344 558.815C720.25 550.899 718.186 541.656 718.186 531.059H717.186ZM723.456 559.274L722.574 559.745C726.975 567.98 733.022 574.388 740.711 578.944L741.221 578.084L741.731 577.224C734.372 572.863 728.575 566.731 724.338 558.803L723.456 559.274ZM741.221 578.084L740.723 578.951C748.415 583.367 757.159 585.563 766.928 585.563V584.563V583.563C757.469 583.563 749.075 581.44 741.719 577.217L741.221 578.084ZM766.928 584.563V585.563C775.853 585.563 783.759 583.649 790.617 579.792L790.127 578.92L789.637 578.048C783.119 581.715 775.559 583.563 766.928 583.563V584.563ZM790.127 578.92L790.617 579.792C797.501 575.919 802.859 570.046 806.7 562.223L805.802 561.782L804.904 561.341C801.221 568.844 796.129 574.397 789.637 578.048L790.127 578.92ZM805.802 561.782V562.782H834.435V561.782V560.782H805.802V561.782ZM834.435 561.782L833.503 561.419C828.144 575.161 819.503 585.714 807.574 593.118L808.101 593.968L808.628 594.818C820.943 587.174 829.858 576.27 835.367 562.145L834.435 561.782ZM808.101 593.968L807.569 593.121C795.761 600.536 782.224 604.254 766.928 604.254V605.254V606.254C782.564 606.254 796.476 602.448 808.633 594.815L808.101 593.968ZM766.928 605.254V604.254C753.433 604.254 741.131 601.158 730.003 594.975L729.517 595.849L729.031 596.723C740.475 603.08 753.114 606.254 766.928 606.254V605.254ZM729.517 595.849L730.011 594.979C718.878 588.657 710.017 579.934 703.416 568.796L702.556 569.306L701.696 569.816C708.471 581.25 717.584 590.222 729.023 596.719L729.517 595.849ZM702.556 569.306L703.421 568.804C696.969 557.684 693.733 545.111 693.733 531.059H692.733H691.733C691.733 545.431 695.046 558.356 701.691 569.808L702.556 569.306ZM949.894 574.322L950.838 573.99L950.603 573.322H949.894V574.322ZM889.075 574.322V573.322H888.367L888.132 573.99L889.075 574.322ZM878.625 604V605H879.334L879.569 604.332L878.625 604ZM853.754 604L852.813 603.663L852.335 605H853.754V604ZM905.795 458.536V457.536H905.091L904.854 458.199L905.795 458.536ZM933.383 458.536L934.325 458.199L934.088 457.536H933.383V458.536ZM985.424 604V605H986.844L986.366 603.663L985.424 604ZM960.344 604L959.401 604.332L959.636 605H960.344V604ZM943.206 554.885V555.885H944.616L944.15 554.555L943.206 554.885ZM919.589 487.378L920.533 487.048L919.594 484.362L918.646 487.045L919.589 487.378ZM895.763 554.885L894.82 554.552L894.35 555.885H895.763V554.885ZM949.894 574.322V573.322H889.075V574.322V575.322H949.894V574.322ZM889.075 574.322L888.132 573.99L877.682 603.668L878.625 604L879.569 604.332L890.019 574.654L889.075 574.322ZM878.625 604V603H853.754V604V605H878.625V604ZM853.754 604L854.696 604.337L906.737 458.873L905.795 458.536L904.854 458.199L852.813 603.663L853.754 604ZM905.795 458.536V459.536H933.383V458.536V457.536H905.795V458.536ZM933.383 458.536L932.442 458.873L984.483 604.337L985.424 604L986.366 603.663L934.325 458.199L933.383 458.536ZM985.424 604V603H960.344V604V605H985.424V604ZM960.344 604L961.288 603.668L950.838 573.99L949.894 574.322L948.951 574.654L959.401 604.332L960.344 604ZM943.206 554.885L944.15 554.555L920.533 487.048L919.589 487.378L918.646 487.708L942.263 555.215L943.206 554.885ZM919.589 487.378L918.646 487.045L894.82 554.552L895.763 554.885L896.706 555.218L920.532 487.711L919.589 487.378ZM895.763 554.885V555.885H943.206V554.885V553.885H895.763V554.885ZM1115.69 458.745L1116.57 459.206L1117.33 457.745H1115.69V458.745ZM1067.62 551.332L1066.73 550.871L1066.62 551.088V551.332H1067.62ZM1067.62 604V605H1068.62V604H1067.62ZM1043.79 604H1042.79V605H1043.79V604ZM1043.79 551.332H1044.79V551.087L1044.68 550.87L1043.79 551.332ZM995.512 458.745V457.745H993.863L994.625 459.207L995.512 458.745ZM1022.05 458.745L1022.96 458.318L1022.69 457.745H1022.05V458.745ZM1055.7 530.014L1054.8 530.441L1055.7 532.356L1056.61 530.441L1055.7 530.014ZM1089.35 458.745V457.745H1088.72L1088.45 458.318L1089.35 458.745ZM1115.69 458.745L1114.8 458.284L1066.73 550.871L1067.62 551.332L1068.5 551.793L1116.57 459.206L1115.69 458.745ZM1067.62 551.332H1066.62V604H1067.62H1068.62V551.332H1067.62ZM1067.62 604V603H1043.79V604V605H1067.62V604ZM1043.79 604H1044.79V551.332H1043.79H1042.79V604H1043.79ZM1043.79 551.332L1044.68 550.87L996.399 458.283L995.512 458.745L994.625 459.207L1042.9 551.794L1043.79 551.332ZM995.512 458.745V459.745H1022.05V458.745V457.745H995.512V458.745ZM1022.05 458.745L1021.15 459.172L1054.8 530.441L1055.7 530.014L1056.61 529.587L1022.96 458.318L1022.05 458.745ZM1055.7 530.014L1056.61 530.441L1090.26 459.172L1089.35 458.745L1088.45 458.318L1054.8 529.587L1055.7 530.014ZM1089.35 458.745V459.745H1115.69V458.745V457.745H1089.35V458.745ZM1259.79 458.745L1260.72 459.097L1261.23 457.745H1259.79V458.745ZM1205.24 604V605H1205.93L1206.17 604.352L1205.24 604ZM1177.65 604L1176.71 604.353L1176.96 605H1177.65V604ZM1122.89 458.745V457.745H1121.45L1121.96 459.098L1122.89 458.745ZM1148.39 458.745L1149.33 458.409L1149.09 457.745H1148.39V458.745ZM1191.44 579.547L1190.5 579.883L1191.44 582.519L1192.38 579.884L1191.44 579.547ZM1234.71 458.745V457.745H1234L1233.76 458.408L1234.71 458.745ZM1259.79 458.745L1258.85 458.393L1204.3 603.648L1205.24 604L1206.17 604.352L1260.72 459.097L1259.79 458.745ZM1205.24 604V603H1177.65V604V605H1205.24V604ZM1177.65 604L1178.58 603.647L1123.83 458.392L1122.89 458.745L1121.96 459.098L1176.71 604.353L1177.65 604ZM1122.89 458.745V459.745H1148.39V458.745V457.745H1122.89V458.745ZM1148.39 458.745L1147.45 459.081L1190.5 579.883L1191.44 579.547L1192.38 579.211L1149.33 458.409L1148.39 458.745ZM1191.44 579.547L1192.38 579.884L1235.65 459.082L1234.71 458.745L1233.76 458.408L1190.5 579.21L1191.44 579.547ZM1234.71 458.745V459.745H1259.79V458.745V457.745H1234.71V458.745ZM1308.55 596.058L1308.06 596.928L1308.07 596.931L1308.07 596.935L1308.55 596.058ZM1281.59 569.515L1280.72 570.012L1280.73 570.019L1280.73 570.025L1281.59 569.515ZM1281.59 492.812L1280.73 492.302L1280.73 492.31L1281.59 492.812ZM1308.55 466.478L1309.04 467.352L1309.04 467.35L1308.55 466.478ZM1383.38 466.478L1382.88 467.348L1382.89 467.351L1382.89 467.355L1383.38 466.478ZM1410.34 492.812L1409.47 493.314V493.314L1410.34 492.812ZM1410.34 569.515L1411.2 570.017L1411.2 570.012L1410.34 569.515ZM1383.38 596.058L1383.86 596.932L1383.86 596.93L1383.38 596.058ZM1371.67 578.293L1372.17 579.16L1372.18 579.153L1371.67 578.293ZM1389.23 559.483L1388.34 559.018L1388.34 559.024L1389.23 559.483ZM1389.23 502.844L1388.34 503.303L1388.35 503.315L1389.23 502.844ZM1371.67 484.243L1371.17 485.11V485.11L1371.67 484.243ZM1320.26 484.243L1320.76 485.11V485.11L1320.26 484.243ZM1302.49 502.844L1301.61 502.373L1301.6 502.385L1302.49 502.844ZM1302.49 559.483L1301.6 559.936L1301.61 559.945L1301.61 559.954L1302.49 559.483ZM1320.26 578.293L1319.75 579.153L1319.76 579.16L1320.26 578.293ZM1345.96 605.463V604.463C1332.61 604.463 1320.31 601.367 1309.03 595.181L1308.55 596.058L1308.07 596.935C1319.65 603.289 1332.29 606.463 1345.96 606.463V605.463ZM1308.55 596.058L1309.05 595.188C1297.91 588.866 1289.05 580.143 1282.45 569.005L1281.59 569.515L1280.73 570.025C1287.51 581.459 1296.62 590.431 1308.06 596.928L1308.55 596.058ZM1281.59 569.515L1282.46 569.018C1276 557.756 1272.77 545.111 1272.77 531.059H1271.77H1270.77C1270.77 545.431 1274.08 558.424 1280.72 570.012L1281.59 569.515ZM1271.77 531.059H1272.77C1272.77 517.007 1276 504.434 1282.46 493.314L1281.59 492.812L1280.73 492.31C1274.08 503.762 1270.77 516.687 1270.77 531.059H1271.77ZM1281.59 492.812L1282.45 493.322C1289.05 482.186 1297.91 473.535 1309.04 467.352L1308.55 466.478L1308.07 465.604C1296.62 471.961 1287.51 480.866 1280.73 492.302L1281.59 492.812ZM1308.55 466.478L1309.04 467.35C1320.31 461.027 1332.61 457.864 1345.96 457.864V456.864V455.864C1332.28 455.864 1319.64 459.11 1308.06 465.606L1308.55 466.478ZM1345.96 456.864V457.864C1359.46 457.864 1371.75 461.028 1382.88 467.348L1383.38 466.478L1383.87 465.608C1372.42 459.109 1359.78 455.864 1345.96 455.864V456.864ZM1383.38 466.478L1382.89 467.355C1394.16 473.537 1403.01 482.185 1409.47 493.314L1410.34 492.812L1411.2 492.31C1404.56 480.867 1395.44 471.959 1383.86 465.601L1383.38 466.478ZM1410.34 492.812L1409.47 493.314C1415.92 504.434 1419.16 517.007 1419.16 531.059H1420.16H1421.16C1421.16 516.687 1417.85 503.762 1411.2 492.31L1410.34 492.812ZM1420.16 531.059H1419.16C1419.16 545.111 1415.92 557.756 1409.47 569.018L1410.34 569.515L1411.2 570.012C1417.85 558.424 1421.16 545.431 1421.16 531.059H1420.16ZM1410.34 569.515L1409.47 569.013C1403.01 580.144 1394.16 588.864 1382.89 595.186L1383.38 596.058L1383.86 596.93C1395.45 590.434 1404.56 581.458 1411.2 570.017L1410.34 569.515ZM1383.38 596.058L1382.89 595.184C1371.76 601.367 1359.46 604.463 1345.96 604.463V605.463V606.463C1359.78 606.463 1372.42 603.289 1383.86 596.932L1383.38 596.058ZM1345.96 584.772V585.772C1355.73 585.772 1364.48 583.576 1372.17 579.16L1371.67 578.293L1371.17 577.426C1363.82 581.649 1355.42 583.772 1345.96 583.772V584.772ZM1371.67 578.293L1372.18 579.153C1379.87 574.595 1385.85 568.183 1390.12 559.942L1389.23 559.483L1388.34 559.024C1384.24 566.946 1378.52 573.074 1371.16 577.433L1371.67 578.293ZM1389.23 559.483L1390.11 559.948C1394.52 551.563 1396.71 541.924 1396.71 531.059H1395.71H1394.71C1394.71 541.651 1392.57 550.961 1388.34 559.018L1389.23 559.483ZM1395.71 531.059H1396.71C1396.71 520.194 1394.52 510.622 1390.11 502.373L1389.23 502.844L1388.35 503.315C1392.57 511.229 1394.71 520.467 1394.71 531.059H1395.71ZM1389.23 502.844L1390.12 502.385C1385.85 494.141 1379.87 487.795 1372.17 483.376L1371.67 484.243L1371.17 485.11C1378.52 489.329 1384.24 495.384 1388.34 503.303L1389.23 502.844ZM1371.67 484.243L1372.17 483.376C1364.48 478.96 1355.73 476.764 1345.96 476.764V477.764V478.764C1355.42 478.764 1363.82 480.887 1371.17 485.11L1371.67 484.243ZM1345.96 477.764V476.764C1336.19 476.764 1327.45 478.96 1319.76 483.376L1320.26 484.243L1320.76 485.11C1328.11 480.887 1336.51 478.764 1345.96 478.764V477.764ZM1320.26 484.243L1319.76 483.376C1312.06 487.794 1306.01 494.136 1301.61 502.373L1302.49 502.844L1303.37 503.315C1307.61 495.39 1313.4 489.331 1320.76 485.11L1320.26 484.243ZM1302.49 502.844L1301.6 502.385C1297.34 510.631 1295.22 520.199 1295.22 531.059H1296.22H1297.22C1297.22 520.462 1299.29 511.219 1303.38 503.303L1302.49 502.844ZM1296.22 531.059H1295.22C1295.22 541.919 1297.34 551.554 1301.6 559.936L1302.49 559.483L1303.38 559.03C1299.29 550.971 1297.22 541.656 1297.22 531.059H1296.22ZM1302.49 559.483L1301.61 559.954C1306.01 568.189 1312.06 574.597 1319.75 579.153L1320.26 578.293L1320.77 577.433C1313.41 573.072 1307.61 566.94 1303.37 559.012L1302.49 559.483ZM1320.26 578.293L1319.76 579.16C1327.45 583.576 1336.19 585.772 1345.96 585.772V584.772V583.772C1336.51 583.772 1328.11 581.649 1320.76 577.426L1320.26 578.293ZM1510.28 531.477L1509.43 530.948L1509.1 531.477L1509.43 532.005L1510.28 531.477ZM1555.42 604V605H1557.22L1556.27 603.472L1555.42 604ZM1528.67 604L1527.82 604.529L1528.11 605H1528.67V604ZM1495.85 551.332L1496.7 550.803L1495.83 549.396L1494.99 550.828L1495.85 551.332ZM1465.13 604V605H1465.71L1466 604.504L1465.13 604ZM1438.59 604L1437.74 603.472L1436.79 605H1438.59V604ZM1483.73 531.477L1484.58 532.005L1484.91 531.477L1484.58 530.948L1483.73 531.477ZM1438.38 458.745V457.745H1436.58L1437.53 459.274L1438.38 458.745ZM1465.13 458.745L1465.98 458.217L1465.69 457.745H1465.13V458.745ZM1498.15 511.831L1497.3 512.359L1498.18 513.769L1499.02 512.334L1498.15 511.831ZM1529.09 458.745V457.745H1528.51L1528.22 458.242L1529.09 458.745ZM1555.63 458.745L1556.48 459.274L1557.43 457.745H1555.63V458.745ZM1510.28 531.477L1509.43 532.005L1554.57 604.528L1555.42 604L1556.27 603.472L1511.12 530.949L1510.28 531.477ZM1555.42 604V603H1528.67V604V605H1555.42V604ZM1528.67 604L1529.52 603.471L1496.7 550.803L1495.85 551.332L1495.01 551.861L1527.82 604.529L1528.67 604ZM1495.85 551.332L1494.99 550.828L1464.27 603.496L1465.13 604L1466 604.504L1496.72 551.836L1495.85 551.332ZM1465.13 604V603H1438.59V604V605H1465.13V604ZM1438.59 604L1439.44 604.528L1484.58 532.005L1483.73 531.477L1482.88 530.949L1437.74 603.472L1438.59 604ZM1483.73 531.477L1484.58 530.948L1439.23 458.216L1438.38 458.745L1437.53 459.274L1482.88 532.006L1483.73 531.477ZM1438.38 458.745V459.745H1465.13V458.745V457.745H1438.38V458.745ZM1465.13 458.745L1464.28 459.273L1497.3 512.359L1498.15 511.831L1499 511.303L1465.98 458.217L1465.13 458.745ZM1498.15 511.831L1499.02 512.334L1529.95 459.248L1529.09 458.745L1528.22 458.242L1497.29 511.328L1498.15 511.831ZM1529.09 458.745V459.745H1555.63V458.745V457.745H1529.09V458.745ZM1555.63 458.745L1554.78 458.216L1509.43 530.948L1510.28 531.477L1511.12 532.006L1556.48 459.274L1555.63 458.745Z" fill="url(#paint1_linear_12_79)" mask="url(#path-1-outside-1_12_79)"/>
<rect x="298" y="539.5" width="234.052" height="234.052" rx="5" transform="rotate(-45 298 539.5)" stroke="url(#paint2_linear_12_79)" stroke-width="35"/>
<rect x="447.5" y="456" width="30" height="159" rx="15" fill="url(#paint3_linear_12_79)"/>
<rect x="447.5" y="456" width="30" height="160" rx="15" fill="url(#paint4_linear_12_79)"/>
<rect x="494.5" y="499" width="30" height="75" rx="15" fill="url(#paint5_linear_12_79)"/>
<rect x="400.5" y="498" width="30" height="75" rx="15" fill="url(#paint6_linear_12_79)"/>
<defs>
<linearGradient id="paint0_linear_12_79" x1="685" y1="513.5" x2="1621" y2="513.5" gradientUnits="userSpaceOnUse">
<stop stop-color="#2F52ED"/>
<stop offset="0.831831" stop-color="#333333"/>
</linearGradient>
<linearGradient id="paint1_linear_12_79" x1="685" y1="513.5" x2="1621" y2="513.5" gradientUnits="userSpaceOnUse">
<stop stop-color="#2F52ED"/>
<stop offset="0.831831" stop-color="#333333"/>
</linearGradient>
<linearGradient id="paint2_linear_12_79" x1="298" y1="656.526" x2="532.052" y2="656.526" gradientUnits="userSpaceOnUse">
<stop stop-color="#2F52ED"/>
<stop offset="0.831831" stop-color="#333333"/>
</linearGradient>
<linearGradient id="paint3_linear_12_79" x1="447.5" y1="535.5" x2="477.5" y2="535.5" gradientUnits="userSpaceOnUse">
<stop stop-color="#2F52ED"/>
<stop offset="0.831831" stop-color="#333333"/>
</linearGradient>
<linearGradient id="paint4_linear_12_79" x1="447.5" y1="536" x2="477.5" y2="536" gradientUnits="userSpaceOnUse">
<stop stop-color="#2F52ED"/>
<stop offset="0.831831" stop-color="#333333"/>
</linearGradient>
<linearGradient id="paint5_linear_12_79" x1="494.5" y1="536.5" x2="524.5" y2="536.5" gradientUnits="userSpaceOnUse">
<stop stop-color="#2F52ED"/>
<stop offset="0.831831" stop-color="#333333"/>
</linearGradient>
<linearGradient id="paint6_linear_12_79" x1="400.5" y1="535.5" x2="430.5" y2="535.5" gradientUnits="userSpaceOnUse">
<stop stop-color="#2F52ED"/>
<stop offset="0.831831" stop-color="#333333"/>
</linearGradient>
</defs>
</svg>
